<svg width="318" height="102" viewBox="0 0 318 102" fill="none" xmlns="http://www.w3.org/2000/svg">
<mask id="path-1-inside-1" fill="white">
<path d="M70 20C70 18.3431 71.3431 17 73 17H298C309.046 17 318 25.9543 318 37V66C318 77.0457 309.046 86 298 86H73C71.3431 86 70 84.6569 70 83V20Z"/>
</mask>
<path d="M70 20C70 18.3431 71.3431 17 73 17H298C309.046 17 318 25.9543 318 37V66C318 77.0457 309.046 86 298 86H73C71.3431 86 70 84.6569 70 83V20Z" fill="white" stroke="#0066FF" stroke-width="14" mask="url(#path-1-inside-1)"/>
<path d="M105.5 51C105.5 77.0183 82.889 98.5 54.5 98.5C26.111 98.5 3.5 77.0183 3.5 51C3.5 24.9817 26.111 3.5 54.5 3.5C82.889 3.5 105.5 24.9817 105.5 51Z" fill="white" stroke="#0066FF" stroke-width="7"/>
<path d="M172.991 55.2388V61H169.622V44.6484H176C177.228 44.6484 178.306 44.873 179.235 45.3223C180.171 45.7715 180.889 46.4116 181.391 47.2427C181.893 48.0662 182.143 49.0059 182.143 50.0615C182.143 51.6637 181.593 52.929 180.493 53.8574C179.4 54.7783 177.883 55.2388 175.944 55.2388H172.991ZM172.991 52.5098H176C176.891 52.5098 177.569 52.3001 178.033 51.8809C178.505 51.4616 178.741 50.8626 178.741 50.084C178.741 49.2829 178.505 48.6353 178.033 48.1411C177.561 47.647 176.91 47.3924 176.079 47.3774H172.991V52.5098ZM194.921 57.6309H189.013L187.89 61H184.308L190.395 44.6484H193.517L199.637 61H196.055L194.921 57.6309ZM189.923 54.9019H194.011L191.956 48.7812L189.923 54.9019ZM207.754 55.2388V61H204.385V44.6484H210.764C211.992 44.6484 213.07 44.873 213.998 45.3223C214.934 45.7715 215.653 46.4116 216.154 47.2427C216.656 48.0662 216.907 49.0059 216.907 50.0615C216.907 51.6637 216.356 52.929 215.256 53.8574C214.163 54.7783 212.647 55.2388 210.708 55.2388H207.754ZM207.754 52.5098H210.764C211.655 52.5098 212.332 52.3001 212.796 51.8809C213.268 51.4616 213.504 50.8626 213.504 50.084C213.504 49.2829 213.268 48.6353 212.796 48.1411C212.325 47.647 211.673 47.3924 210.842 47.3774H207.754V52.5098ZM232.289 53.9136H225.821V58.2935H233.412V61H222.451V44.6484H233.39V47.3774H225.821V51.2744H232.289V53.9136ZM244.662 55.0142H241.978V61H238.609V44.6484H244.685C246.616 44.6484 248.106 45.0789 249.154 45.9399C250.203 46.8009 250.727 48.0176 250.727 49.5898C250.727 50.7054 250.483 51.6375 249.997 52.3862C249.517 53.1274 248.787 53.7189 247.807 54.1606L251.344 60.8428V61H247.728L244.662 55.0142ZM241.978 52.2852H244.696C245.542 52.2852 246.197 52.0718 246.661 51.645C247.125 51.2108 247.357 50.6156 247.357 49.8594C247.357 49.0882 247.137 48.4818 246.695 48.04C246.261 47.5983 245.591 47.3774 244.685 47.3774H241.978V52.2852Z" fill="black"/>
<path d="M71.2345 32.4001V30.9202C71.2345 24.9576 65.9886 20.4351 60.4839 21.9588C57.1659 15.1913 48.3026 15.4715 45.2094 22.061C39.8651 20.6171 34.5409 24.9222 34.5409 30.9453V48.1896C31.9577 47.1742 28.9341 47.4967 26.5034 49.4025C22.703 52.3824 21.8693 58.0612 24.6197 62.1382L40.1514 85.1636C40.5345 85.7315 41.0406 86.1945 41.6276 86.5139C42.2145 86.8333 42.8652 87 43.5255 87H72.3827C74.3123 87 75.9864 85.5933 76.4197 83.6076L80.3274 65.7032C80.774 63.6556 80.9996 61.5611 81 59.4599V41.4726C81 35.9191 76.401 31.63 71.2345 32.4001ZM74.7853 59.4597C74.7853 61.0636 74.6126 62.6684 74.272 64.2293L70.7344 80.4374H44.5929L29.6791 58.3304C27.8098 55.5592 31.6241 52.4822 33.4846 55.2399L36.9967 60.446C38.1613 62.1722 40.7552 61.3056 40.7552 59.1769V30.9453C40.7552 27.4392 45.4899 27.5533 45.4899 31.0398V52C45.4899 53.2081 46.4172 54.1875 47.5613 54.1875H48.4489C49.593 54.1875 50.5203 53.2081 50.5203 52V26.1602C50.5203 22.6516 55.255 22.7682 55.255 26.2547V52C55.255 53.2081 56.1823 54.1875 57.3264 54.1875H58.214C59.3581 54.1875 60.2854 53.2081 60.2854 52V30.8257C60.2854 27.3159 65.02 27.4337 65.02 30.9202V52C65.02 53.2081 65.9473 54.1875 67.0914 54.1875H67.9791C69.1232 54.1875 70.0505 53.2081 70.0505 52V41.5671C70.0505 37.9794 74.7851 38.0617 74.7851 41.4726V59.4597H74.7853Z" fill="black"/>
</svg>
