<svg width="172" height="138" viewBox="0 0 172 138" fill="none" xmlns="http://www.w3.org/2000/svg">
<path d="M135.5 51C135.5 77.0183 112.889 98.5 84.5 98.5C56.111 98.5 33.5 77.0183 33.5 51C33.5 24.9817 56.111 3.5 84.5 3.5C112.889 3.5 135.5 24.9817 135.5 51Z" fill="white" stroke="#0066FF" stroke-width="7"/>
<path d="M48.9907 125.239V131H45.6215V114.648H52.0004C53.2283 114.648 54.3064 114.873 55.2348 115.322C56.1707 115.771 56.8894 116.412 57.3911 117.243C57.8927 118.066 58.1435 119.006 58.1435 120.062C58.1435 121.664 57.5932 122.929 56.4926 123.857C55.3995 124.778 53.8834 125.239 51.9443 125.239H48.9907ZM48.9907 122.51H52.0004C52.8914 122.51 53.569 122.3 54.0331 121.881C54.5048 121.462 54.7407 120.863 54.7407 120.084C54.7407 119.283 54.5048 118.635 54.0331 118.141C53.5615 117.647 52.9101 117.392 52.079 117.377H48.9907V122.51ZM70.9206 127.631H65.0134L63.8904 131H60.3078L66.3947 114.648H69.5168L75.6374 131H72.0549L70.9206 127.631ZM65.9231 124.902H70.011L67.9558 118.781L65.9231 124.902ZM83.7539 125.239V131H80.3848V114.648H86.7637C87.9915 114.648 89.0697 114.873 89.998 115.322C90.9339 115.771 91.6527 116.412 92.1543 117.243C92.6559 118.066 92.9067 119.006 92.9067 120.062C92.9067 121.664 92.3564 122.929 91.2559 123.857C90.1628 124.778 88.6466 125.239 86.7075 125.239H83.7539ZM83.7539 122.51H86.7637C87.6546 122.51 88.3322 122.3 88.7964 121.881C89.2681 121.462 89.5039 120.863 89.5039 120.084C89.5039 119.283 89.2681 118.635 88.7964 118.141C88.3247 117.647 87.6733 117.392 86.8423 117.377H83.7539V122.51ZM108.289 123.914H101.821V128.293H109.412V131H98.4514V114.648H109.39V117.377H101.821V121.274H108.289V123.914ZM120.662 125.014H117.978V131H114.609V114.648H120.685C122.616 114.648 124.106 115.079 125.154 115.94C126.203 116.801 126.727 118.018 126.727 119.59C126.727 120.705 126.483 121.638 125.997 122.386C125.517 123.127 124.787 123.719 123.807 124.161L127.344 130.843V131H123.728L120.662 125.014ZM117.978 122.285H120.696C121.542 122.285 122.197 122.072 122.661 121.645C123.125 121.211 123.357 120.616 123.357 119.859C123.357 119.088 123.137 118.482 122.695 118.04C122.261 117.598 121.591 117.377 120.685 117.377H117.978V122.285Z" fill="black"/>
<path d="M101.235 32.4001V30.9202C101.235 24.9576 95.9886 20.4351 90.4839 21.9588C87.1659 15.1913 78.3026 15.4715 75.2094 22.061C69.8651 20.6171 64.5409 24.9222 64.5409 30.9453V48.1896C61.9577 47.1742 58.9341 47.4967 56.5034 49.4025C52.703 52.3824 51.8693 58.0612 54.6197 62.1382L70.1514 85.1636C70.5345 85.7315 71.0406 86.1945 71.6276 86.5139C72.2145 86.8333 72.8652 87 73.5255 87H102.383C104.312 87 105.986 85.5933 106.42 83.6076L110.327 65.7032C110.774 63.6556 111 61.5611 111 59.4599V41.4726C111 35.9191 106.401 31.63 101.235 32.4001ZM104.785 59.4597C104.785 61.0636 104.613 62.6684 104.272 64.2293L100.734 80.4374H74.5929L59.6791 58.3304C57.8098 55.5592 61.6241 52.4822 63.4846 55.2399L66.9967 60.446C68.1613 62.1722 70.7552 61.3056 70.7552 59.1769V30.9453C70.7552 27.4392 75.4899 27.5533 75.4899 31.0398V52C75.4899 53.2081 76.4172 54.1875 77.5613 54.1875H78.4489C79.593 54.1875 80.5203 53.2081 80.5203 52V26.1602C80.5203 22.6516 85.255 22.7682 85.255 26.2547V52C85.255 53.2081 86.1823 54.1875 87.3264 54.1875H88.214C89.3581 54.1875 90.2854 53.2081 90.2854 52V30.8257C90.2854 27.3159 95.02 27.4337 95.02 30.9202V52C95.02 53.2081 95.9473 54.1875 97.0914 54.1875H97.9791C99.1232 54.1875 100.051 53.2081 100.051 52V41.5671C100.051 37.9794 104.785 38.0617 104.785 41.4726V59.4597H104.785Z" fill="black"/>
</svg>
