<?xml version="1.0" encoding="UTF-8" standalone="no"?>
<svg
   width="336"
   height="63"
   viewBox="0 0 336 63"
   fill="none"
   version="1.1"
   id="svg6"
   sodipodi:docname="Ribbon.svg"
   inkscape:version="1.1 (c68e22c387, 2021-05-23)"
   xmlns:inkscape="http://www.inkscape.org/namespaces/inkscape"
   xmlns:sodipodi="http://sodipodi.sourceforge.net/DTD/sodipodi-0.dtd"
   xmlns="http://www.w3.org/2000/svg"
   xmlns:svg="http://www.w3.org/2000/svg">
  <defs
     id="defs10">
    <clipPath
       clipPathUnits="userSpaceOnUse"
       id="clipPath1241">
      <path
         id="path1243"
         style="fill:#ff0000;fill-opacity:1;fill-rule:nonzero;stroke:none"
         d="m -1.5,2.5 v 2.3046875 c 0.023635,0.010269 0.047329,0.021739 0.068359,0.037109 0.4053415,0.2962468 0.43587513,0.704609 0.3925781,1.1152343 0.19757793,0.1660508 0.27909313,0.2958804 0.25976562,0.5410157 0.004623,0.054952 0.004399,0.1094495 0.005859,0.1640625 0.0138911,0.022792 0.02754,0.045766 0.03125,0.068359 0.0791351,-0.051293 0.16036762,-0.074988 0.63671875,0.09375 0.35672105,0.126361 0.58232847,0.5221885 0.72070313,0.8359374 0.0631864,0.1432683 0.0858895,0.3006133 0.12890624,0.4511719 0.10109397,0.3538289 0.089611,0.6440954 0.0117188,0.8652344 0.0474628,0.037147 0.10019807,0.066615 0.14648437,0.1054687 0.008472,0.00711 -0.025621,-0.00561 -0.03125,0.00391 -0.008659,0.014647 -0.0163245,0.045991 0,0.050781 0.1109541,0.032587 0.22931759,0.03411 0.34375009,0.050781 0.4676059,0.4262126 0.720127,0.6242716 0.8496093,0.7109375 -0.015722,0.017021 -0.023568,0.053164 -0.00977,0.1269531 0.01135,0.06059 0.070206,0.126487 0.039063,0.179687 -0.6000122,1.024869 -0.3237544,1.020185 -0.7578125,1.021484 -0.058009,4.47e-4 -0.115865,-0.0025 -0.1738281,-0.002 0.021814,0.211862 0.00234,0.42325 -0.029297,0.634766 0.010905,0.02959 0.025172,0.05797 0.035156,0.08789 0.026209,0.07853 0.00744,0.21945 -0.011719,0.357422 0.00196,0.117838 0.00426,0.235704 0.00586,0.353515 0.00585,0.01366 0.013252,0.02678 0.017578,0.04102 0.060926,0.200517 0.095792,0.280918 0.070312,0.4375 -0.00374,0.02297 -0.019402,0.04579 -0.013672,0.06836 0.020866,0.08222 0.059394,0.159111 0.089844,0.238281 0.093517,0.418726 0.1171534,0.479237 0.080078,0.865235 -0.00127,0.01317 -0.0068,0.02232 -0.011719,0.03711 0.010483,0.01865 0.019718,0.02534 0.050781,0.136719 0.073663,0.264115 0.1106919,0.427911 0.1074219,0.677734 0.00194,0.06596 0.010425,0.470826 -0.037109,0.509766 -0.032988,0.01489 0.00254,-0.006 0.060547,0.191406 0.094347,0.321145 0.1195055,0.595816 0.1015625,0.923828 v 0.757813 1.005859 1.38086 c 1.2e-6,0.364685 1e-6,0.729061 0,1.09375 1.2e-6,0.395565 3.69e-5,0.791933 0,1.1875 -3.21e-5,0.40528 -2.66e-4,0.809559 0,1.214843 -9.58e-5,0.363641 -0.00238,0.728167 0,1.091797 0.00367,0.387567 0.00341,0.774746 -0.011719,1.16211 -0.0388,-0.07507 -0.1038375,-0.30806 -0.1171875,-0.22461 -0.014376,0.08986 0.083246,0.162147 0.1132813,0.248047 0.1478328,0.422804 0.026734,0.901587 -0.029297,1.326172 -0.03838,0.200634 -0.072108,0.401894 -0.1152344,0.601562 -0.022034,0.102015 -0.08036,0.19395 -0.097656,0.296875 -0.028486,0.169516 0.019534,0.352422 0,0.523438 v 1.49414 0.904297 c -1.5e-6,0.260444 -2.23e-5,0.520806 0,0.78125 1.42e-5,0.321106 6.22e-5,0.641785 0,0.962891 1.253e-4,0.237118 0.00141,0.475775 0,0.712891 -7.666e-4,0.30353 0.0019,0.606839 -0.00195,0.910156 -0.011843,0.234114 -0.00962,0.467016 -0.015625,0.701172 -0.0016,0.06263 -0.015744,0.12513 -0.00977,0.1875 0.015713,0.163576 0.1332046,0.30978 0.091797,0.484375 -0.026264,0.336243 -0.00429,0.312034 -0.125,0.662109 -0.018553,0.05381 -0.044396,0.104546 -0.068359,0.15625 v 1.394531 2.09375 c 0.033954,0.05601 0.08305,0.08214 0.1113282,0.134766 l 0.00195,0.002 c 0.2434806,0.19689 0.2397794,0.201448 0.2402343,0.232422 6.544e-4,0.04454 -0.05311,0.113339 0.1171876,0.630859 0.033576,0.02152 0.066237,0.0431 0.083984,0.0625 9.899e-4,0.0011 9.893e-4,0.0028 0.00195,0.0039 0.00906,-0.06881 0.024995,-0.144061 0.066406,-0.154297 0.074666,-0.01845 0.058706,0.143684 0.087891,0.214844 -0.038311,-0.111841 0.049828,0.15018 0.099609,0.333984 0.082429,-0.0028 0.053282,-0.07582 0.1113281,0.339844 -0.032988,0.172673 -0.023341,0.337561 -0.019531,0.511718 0.00231,0.175069 -2.22e-5,0.35031 0,0.525391 3.369e-4,0.365663 1.702e-4,0.73004 0,1.095703 -5.81e-5,0.194842 1.5e-6,0.391096 0,0.585938 -9.6e-6,0.292713 -3.4e-6,0.584241 0,0.876953 v 0.416015 0.517578 0.539063 c 0.00313,0.388537 -0.1187604,0.505468 -0.4277344,0.703125 -0.060887,0.108755 -0.1139655,0.195978 -0.1347656,0.226562 -0.66454333,0.977158 -1.56134747,0.75502 -1.57617194,0 -0.08796959,-0.01955 -0.20139058,-0.01901 -0.26171875,-0.07617 -0.13290561,9.53e-4 -0.26641918,0.0039 -0.3984375,-0.0078 -0.29095308,0.0072 -0.58110431,0.07555 -0.85742181,-0.06836 0.055909,-0.04127 0.028016,-0.03638 -0.037109,-0.03125 V 60.431641 H 332.55273 V 2.5 Z m 3.3476562,38.462891 c -0.01046,0.07948 -0.011735,0.151509 -0.029297,0.105468 -0.026875,-0.07046 -0.037701,-0.114317 -0.056641,-0.171875 -0.1348074,-0.08642 -0.3484127,-0.168962 -0.2832032,-0.08594 0.2939437,0.374302 0.4543687,0.491978 0.5488282,0.529297 -0.052105,-0.131481 -0.086939,-0.27334 -0.1796876,-0.376953 z m -0.203125,-0.697266 c -0.065779,-0.0709 -0.1935605,-0.18231 -0.234375,-0.21875 0.039429,0.07432 0.075062,0.143611 0.097656,0.193359 0.206276,0.126689 0.2024981,0.09629 0.1367187,0.02539 z M -1.5,4.8339844 v 0.4179687 c 0.092125,0.080558 0.1914888,0.1490908 0.3066406,0.1914063 C -1.009872,5.5107863 -1.2315503,5.1257124 -1.5,4.8339844 Z m 0.4550781,1.1777344 c -0.00204,0.017 -0.00558,0.033802 -0.00781,0.050781 1.335e-4,0.00204 -1.332e-4,0.00382 0,0.00586 0.00969,0.1481299 0.019136,0.2819037 0.11718752,0.2578125 C -1.0055218,6.1345132 -1.0266471,6.0645529 -1.0449219,6.0117188 Z m -0.1367187,6.8808592 c -9.997e-4,0.0073 -0.00328,0.01411 -0.00391,0.02148 0.00193,0.0212 0.016906,0.108942 0.025391,0.164063 0.013443,-0.01878 -0.00872,-0.143888 -0.021484,-0.185547 z M -1.5,17.130859 V 25.25 c 0.072891,-0.01168 0.1594296,-0.02511 0.2011719,-0.0293 -0.013307,-0.225542 -0.018164,-0.451007 -0.015625,-0.673828 0.015717,-0.400409 -0.00523,-0.236856 0.1367187,-0.511719 0.010201,-0.10473 0.1184454,-0.614639 0.037109,-0.28125 0.031831,-0.168264 0.099432,-0.500033 0.1074219,-0.660156 0.00514,-0.102955 -0.012878,-0.205617 -0.017578,-0.308594 -0.019647,-0.430903 -0.033064,-0.764989 0.14062495,-1.173828 -0.0400146,-0.456603 -0.0700921,-0.908682 0.0136719,-1.365234 0.0538438,-0.158423 0.10550145,-0.316464 0.16015626,-0.47461 0.0361672,-0.104651 0.0862702,-0.211075 0.0996094,-0.322265 0.005756,-0.04798 -0.005575,-0.550236 -0.005859,-0.566407 -0.0418607,-0.461227 -0.0159312,-0.914528 0.0625,-1.365234 -0.0974351,0.06513 -0.18189338,0.117199 -0.30859376,0.208984 C -1.2035915,17.644029 -1.3805923,17.406715 -1.5,17.130859 Z m 0.59375,4.507813 c -0.005933,0.0821 -0.002107,0.220724 0.015625,0.164062 0.016441,-0.05253 -0.009158,-0.109098 -0.015625,-0.164062 z m -0.1191406,2.064453 c 0.01438,-0.03463 -0.056358,0.05309 -0.070312,0.08789 -0.022702,0.05659 -0.03639,0.116315 -0.050781,0.175781 0.035294,-0.07196 0.066318,-0.131783 0.1210938,-0.263672 z" />
    </clipPath>
    <clipPath
       clipPathUnits="userSpaceOnUse"
       id="clipPath1251">
      <path
         id="path1253"
         style="fill:#ff0000;fill-opacity:1;fill-rule:nonzero;stroke:none"
         d="m -4,0 v 4.5175781 h 0.2324219 0.53125 0.3808593 0.6015626 0.6464843 0.68164065 0.39257813 0.91992187 c 0.55823989,1e-7 0.69822835,0.4059735 0.44335937,0.6289063 0.11879281,0.011748 0.23984978,0.014503 0.35742188,0.035156 0.051486,0.00904 0.1440051,5.213e-4 0.1464844,0.052734 0.040559,0.8542117 0.078774,0.7096593 -0.2617188,0.7988281 0.1728409,0.1265982 0.1262349,0.4029463 0.1464844,0.5957031 8.01e-4,0.00762 0.018704,-0.00263 0.021484,-0.00977 0.00651,-0.016719 -0.017351,-0.080441 -0.019531,-0.087891 0.2903942,0.2541278 0.2381278,0.4077827 0.1875,0.7011719 0.022757,0.1809456 0.01261,0.3685144 0.011719,0.5507812 0.030495,0.2848512 -0.1102776,0.5816725 -0.3339844,0.7460938 -0.00192,0.02373 -0.0017,0.046879 0,0.070312 0.011824,0.1628143 0.074267,0.3226713 0.091797,0.4863281 -0.00203,0.032545 -3.761e-4,0.065111 -0.00195,0.097656 0.012923,0.00155 0.026219,0.00204 0.039063,0.00391 0.4676059,0.4262126 0.720127,0.6242716 0.8496093,0.7109375 -0.015722,0.017021 -0.023568,0.05316 -0.00977,0.1269539 0.01135,0.06059 0.070206,0.126487 0.039063,0.179687 -0.1453597,0.248286 -0.2376734,0.434012 -0.3027344,0.576172 0.3723466,-2.37e-4 0.748204,-0.02285 1.1054688,0.07227 0.1974499,0.05256 -0.3452094,2.698612 -0.3496094,2.849609 -0.238259,1.38634 -0.5121328,2.762108 -0.8691406,4.123047 v 0.722656 1.38086 c 1.2e-6,0.364685 10e-7,0.729061 0,1.09375 1.2e-6,0.395565 3.69e-5,0.791933 0,1.1875 -3.21e-5,0.40528 -2.66e-4,0.809559 0,1.214843 -9.58e-5,0.363641 -0.00238,0.728167 0,1.091797 0.00367,0.387567 0.00341,0.774748 -0.011719,1.16211 -0.0388,-0.07507 -0.1038375,-0.30806 -0.1171875,-0.22461 -0.014376,0.08986 0.083246,0.162147 0.1132813,0.248047 0.1478328,0.422804 0.026734,0.901587 -0.029297,1.326172 -0.03838,0.200634 -0.072108,0.401894 -0.1152344,0.601562 -0.022034,0.102015 -0.08036,0.19395 -0.097656,0.296875 v 0.523438 1.49414 0.904297 c -1.5e-6,0.260444 -2.23e-5,0.520806 0,0.78125 1.42e-5,0.321106 6.22e-5,0.641785 0,0.962891 1.253e-4,0.237118 0.00141,0.475775 0,0.712891 v 1.042968 0.523438 0.353515 c 0.037732,0.118314 0.095509,0.232336 0.064453,0.363282 -0.018097,0.231683 -0.029704,0.323348 -0.064453,0.453125 v 0.460937 1.439453 c 0.019548,0.329957 -0.015912,0.638642 -0.070312,0.964844 -0.043809,0.131952 -0.044492,0.267757 -0.058594,0.402344 v 0.542969 c 0.039262,0.05989 0.080711,0.120753 0.1113282,0.177734 l 0.00195,0.002 c 0.2434806,0.19689 0.2397797,0.201448 0.2402343,0.232422 6.544e-4,0.04454 -0.05311,0.113339 0.1171876,0.630859 0.033576,0.02152 0.066237,0.0431 0.083984,0.0625 9.899e-4,0.0011 9.892e-4,0.0028 0.00195,0.0039 0.00906,-0.06881 0.024995,-0.144061 0.066406,-0.154297 0.074666,-0.01845 0.058706,0.143684 0.087891,0.214844 -0.038311,-0.111841 0.049828,0.15018 0.099609,0.333984 0.082429,-0.0028 0.053282,-0.07582 0.1113281,0.339844 -0.032988,0.172673 -0.023341,0.337561 -0.019531,0.511718 0.00231,0.175069 -2.22e-5,0.35031 0,0.525391 3.369e-4,0.365663 1.702e-4,0.73004 0,1.095703 -5.81e-5,0.194842 1.5e-6,0.391096 0,0.585938 -9.6e-6,0.292713 -3.4e-6,0.584241 0,0.876953 v 0.416015 0.517578 0.539063 c 0.00313,0.388537 -0.1187604,0.505468 -0.4277344,0.703125 -0.060887,0.108755 -0.1139655,0.195978 -0.1347656,0.226562 -0.1439156,0.211617 -0.2987492,0.366732 -0.453125,0.472657 -0.00102,0.180991 -0.1609212,0.355467 -0.53320315,0.355469 H -0.2734375 -0.66796875 -1.1875 -1.5761719 -2.0898438 -2.640625 -3.2519531 -3.6328125 -4 V 62.95512 H 335.05273 V 0 Z m 5.8476562,40.962891 c -0.01046,0.07948 -0.011735,0.151509 -0.029297,0.105468 -0.026875,-0.07046 -0.037701,-0.114317 -0.056641,-0.171875 -0.1348074,-0.08642 -0.3484127,-0.168962 -0.2832032,-0.08594 0.2939437,0.374302 0.4543688,0.491978 0.5488282,0.529297 -0.052105,-0.131481 -0.086939,-0.27334 -0.1796876,-0.376953 z m -0.203125,-0.697266 c -0.065779,-0.0709 -0.1935605,-0.18231 -0.234375,-0.21875 0.039429,0.07432 0.075062,0.143611 0.097656,0.193359 0.206276,0.126689 0.2024981,0.09629 0.1367187,0.02539 z M -0.51367188,5.4648438 c 0.014104,0.00862 0.0295086,0.017844 0.0449219,0.021484 0.007464,0.00176 0.0250621,-0.013945 0.0175781,-0.015625 -0.0244911,-0.00549 -0.0455938,-0.00674 -0.0625,-0.00586 z m 1.265625,0.4589843 c -0.0160747,-3.646e-4 -0.0311375,8.381e-4 -0.0449219,0.00195 -0.004511,3.711e-4 -0.007706,0.00137 -0.0117188,0.00195 0.30521908,0.032088 0.1691637,-0.00135 0.0566406,-0.00391 z m -0.953125,0.6464844 c -0.005255,0.00207 -0.0103099,0.00406 -0.015625,0.00586 0.0471737,0.026628 0.10122864,0.088173 0.11328126,0.042969 -0.0253623,-0.012211 -0.0454063,-0.020433 -0.0761719,-0.035156 -0.007975,-0.00382 -0.0142809,-0.00872 -0.0214844,-0.013672 z M 0.49023438,7.40625 c 0.006141,0.010973 0.009697,0.022224 0.015625,0.033203 0.0308433,0.00495 0.11115865,0.02577 0.0859375,0.011719 C 0.55955935,7.4332102 0.52537945,7.4192861 0.49023438,7.40625 Z M -2.3222656,36.203125 c -0.00634,0.04667 -0.018318,0.09215 -0.025391,0.138672 0.00936,-0.003 0.015823,-0.0048 0.025391,-0.0078 5.73e-5,-0.04366 -2.18e-5,-0.08724 0,-0.130859 z m -1.6132813,0.279297 c 0.00421,-0.02505 -0.00998,0.04945 -0.015625,0.07422 0.0012,-0.0039 0.0027,-0.0078 0.00391,-0.01172 0.00386,-0.02092 0.00819,-0.04153 0.011719,-0.0625 z m -0.023437,11.24414 c -0.00831,0.0018 -0.030029,0.0023 -0.041016,0.0039 v 0.01758 h 0.09375 c -0.017995,-0.0083 -0.034331,-0.01221 -0.052734,-0.02148 z" />
    </clipPath>
  </defs>
  <sodipodi:namedview
     id="namedview8"
     pagecolor="#ffffff"
     bordercolor="#cccccc"
     borderopacity="1"
     inkscape:pageshadow="0"
     inkscape:pageopacity="1"
     inkscape:pagecheckerboard="0"
     showgrid="false"
     inkscape:zoom="1"
     inkscape:cx="4.5"
     inkscape:cy="20.5"
     inkscape:window-width="1920"
     inkscape:window-height="1017"
     inkscape:window-x="-8"
     inkscape:window-y="-8"
     inkscape:window-maximized="1"
     inkscape:current-layer="svg6" />
  <path
     d="m -1.5,2.50006 h 324 c 0,0 10.905,7.99994 10,26.99994 -0.905,19 -5.75,21.2501 -5.75,21.2501 0,0 -0.75,4.2499 -12.25,8.7499 -11.5,4.5 -43,-8.7499 -43,-8.7499 h -273 z"
     fill="#ffffff"
     id="path2"
     clip-path="url(#clipPath1241)" />
  <path
     d="m 326.75,50.7501 c 0,0 4.845,-2.2501 5.75,-21.2501 0.905,-19 -10,-26.99994 -10,-26.99994 H -1.5 V 50.7501 Z m 0,0 c 0,0 -0.75,4.2499 -12.25,8.7499 -11.5,4.5 -43,-8.7499 -43,-8.7499 z"
     stroke="#fe0707"
     stroke-width="5"
     id="path4"
     clip-path="url(#clipPath1251)"
     sodipodi:nodetypes="cscccccscc" />
  <rect
     style="fill:#fe0707;fill-opacity:1;stroke:#fe0707;stroke-width:1.46599;stroke-opacity:1"
     id="rect13390"
     width="4.4008536"
     height="1.9987595"
     x="-3.2231259"
     y="48.991741" />
  <rect
     style="fill:#fe0707;fill-opacity:1;stroke:#fe0707;stroke-width:1.78041;stroke-opacity:1"
     id="rect13390-0"
     width="4.2345271"
     height="3.0638986"
     x="-3.0911791"
     y="1.1646687" />
</svg>
