<svg width="318" height="102" viewBox="0 0 318 102" fill="none" xmlns="http://www.w3.org/2000/svg">
<mask id="path-1-inside-1" fill="white">
<path d="M70 20C70 18.3431 71.3431 17 73 17H298C309.046 17 318 25.9543 318 37V66C318 77.0457 309.046 86 298 86H73C71.3431 86 70 84.6569 70 83V20Z"/>
</mask>
<path d="M70 20C70 18.3431 71.3431 17 73 17H298C309.046 17 318 25.9543 318 37V66C318 77.0457 309.046 86 298 86H73C71.3431 86 70 84.6569 70 83V20Z" fill="white" stroke="#FF0000" stroke-width="14" mask="url(#path-1-inside-1)"/>
<path d="M105.5 51C105.5 77.0183 82.889 98.5 54.5 98.5C26.111 98.5 3.5 77.0183 3.5 51C3.5 24.9817 26.111 3.5 54.5 3.5C82.889 3.5 105.5 24.9817 105.5 51Z" fill="white" stroke="#FF0000" stroke-width="7"/>
<path d="M182.574 55.0142H179.89V61H176.521V44.6484H182.597C184.528 44.6484 186.018 45.0789 187.066 45.9399C188.115 46.8009 188.639 48.0176 188.639 49.5898C188.639 50.7054 188.395 51.6375 187.909 52.3862C187.43 53.1274 186.7 53.7189 185.719 54.1606L189.256 60.8428V61H185.64L182.574 55.0142ZM179.89 52.2852H182.608C183.454 52.2852 184.109 52.0718 184.573 51.645C185.038 51.2108 185.27 50.6156 185.27 49.8594C185.27 49.0882 185.049 48.4818 184.607 48.04C184.173 47.5983 183.503 47.3774 182.597 47.3774H179.89V52.2852ZM207.862 53.1948C207.862 54.8045 207.578 56.2158 207.009 57.4287C206.44 58.6416 205.624 59.5775 204.56 60.2363C203.505 60.8952 202.292 61.2246 200.922 61.2246C199.567 61.2246 198.357 60.8989 197.294 60.2476C196.231 59.5962 195.408 58.6678 194.824 57.4624C194.24 56.2495 193.944 54.8569 193.936 53.2847V52.4761C193.936 50.8664 194.225 49.4513 194.801 48.231C195.385 47.0031 196.205 46.0635 197.261 45.4121C198.324 44.7533 199.537 44.4238 200.899 44.4238C202.262 44.4238 203.471 44.7533 204.527 45.4121C205.59 46.0635 206.41 47.0031 206.986 48.231C207.57 49.4513 207.862 50.8626 207.862 52.4648V53.1948ZM204.448 52.4536C204.448 50.7391 204.141 49.4364 203.527 48.5454C202.913 47.6545 202.037 47.209 200.899 47.209C199.769 47.209 198.897 47.6507 198.283 48.5342C197.669 49.4102 197.358 50.6979 197.35 52.3975V53.1948C197.35 54.8644 197.657 56.1597 198.271 57.0806C198.885 58.0015 199.769 58.4619 200.922 58.4619C202.052 58.4619 202.921 58.0202 203.527 57.1367C204.134 56.2458 204.441 54.9505 204.448 53.251V52.4536ZM226.367 55.5532C226.24 57.3127 225.588 58.6978 224.413 59.7085C223.245 60.7192 221.702 61.2246 219.786 61.2246C217.689 61.2246 216.039 60.5208 214.833 59.1133C213.635 57.6982 213.036 55.7591 213.036 53.2959V52.2964C213.036 50.7241 213.313 49.339 213.867 48.1411C214.421 46.9432 215.211 46.026 216.237 45.3896C217.27 44.7458 218.468 44.4238 219.831 44.4238C221.717 44.4238 223.237 44.9292 224.39 45.9399C225.543 46.9507 226.21 48.3695 226.389 50.1963H223.02C222.938 49.1406 222.642 48.377 222.133 47.9053C221.631 47.4261 220.864 47.1865 219.831 47.1865C218.708 47.1865 217.865 47.5908 217.304 48.3994C216.75 49.2005 216.465 50.4471 216.45 52.1392V53.3745C216.45 55.1414 216.716 56.4329 217.248 57.249C217.787 58.0651 218.633 58.4731 219.786 58.4731C220.826 58.4731 221.601 58.2373 222.11 57.7656C222.627 57.2865 222.923 56.549 222.998 55.5532H226.367ZM236.92 54.4414L235.168 56.3281V61H231.799V44.6484H235.168V52.0605L236.651 50.0278L240.817 44.6484H244.961L239.155 51.9146L245.13 61H241.121L236.92 54.4414Z" fill="black"/>
<path d="M67.3166 27.8078C64.779 23.1734 59.8278 22.0283 56.123 24.5829C52.7841 20.2805 47.1573 20.3319 43.8508 24.5799C38.5084 20.8858 31.5359 25.271 31.3138 32.8932C26.0802 31.4111 21 36.1407 21 42.625V50.4116C21 54.8879 22.6177 59.1553 25.4384 62.1193L36.5071 73.7515C36.9887 74.2576 36.8594 74.5134 36.8594 78.25C36.8594 80.6662 38.4824 82.625 40.4844 82.625H69.0312C71.0333 82.625 72.6562 80.6662 72.6562 78.25C72.6562 75.0353 72.5413 74.0465 73.1073 72.4572L77.9597 58.8323C78.6501 56.8941 79 54.844 79 52.7391V37.0926C79 29.8685 72.8472 24.9708 67.3166 27.8078V27.8078ZM73.5625 52.7391C73.5633 53.9434 73.3596 55.1351 72.9641 56.2408L68.1117 69.8656C67.5193 71.5296 67.2188 73.289 67.2188 75.095V76.0625H42.2969V74.6562C42.2969 72.4181 41.488 70.2843 40.0777 68.8023L29.009 57.1703C27.3748 55.4528 26.4375 52.9893 26.4375 50.4114V42.6249C26.4375 38.0847 32.3281 38.0397 32.3281 42.7174V48.3541C32.3281 48.6668 32.3837 48.9758 32.491 49.2604C32.5983 49.545 32.755 49.7985 32.9504 50.0039L33.7433 50.8372C34.0057 51.1128 34.3282 51.2916 34.6724 51.3521C35.0166 51.4126 35.3679 51.3523 35.6845 51.1784C36.0011 51.0044 36.2695 50.7243 36.4577 50.3713C36.646 50.0182 36.7461 49.6073 36.7461 49.1875V33.2499C36.7461 28.725 42.6367 28.6391 42.6367 33.3425V36.9999C42.6367 38.2079 43.4483 39.1874 44.4492 39.1874H45.2422C46.2431 39.1874 47.0547 38.2079 47.0547 36.9999V31.3748C47.0547 26.8448 52.9453 26.7708 52.9453 31.4674V36.9999C52.9453 38.2079 53.7567 39.1874 54.7578 39.1874H55.5508C56.5518 39.1874 57.3633 38.2079 57.3633 36.9999V33.2498C57.3633 28.734 63.2539 28.6314 63.2539 33.3424V36.9997C63.2539 38.2078 64.0653 39.1872 65.0664 39.1872H65.8594C66.8604 39.1872 67.6719 38.2078 67.6719 36.9997C67.6719 32.468 73.5625 32.4042 73.5625 37.0923V52.7391V52.7391Z" fill="black"/>
</svg>
