<svg width="172" height="138" viewBox="0 0 172 138" fill="none" xmlns="http://www.w3.org/2000/svg">
<path d="M135.5 51C135.5 77.0183 112.889 98.5 84.5 98.5C56.111 98.5 33.5 77.0183 33.5 51C33.5 24.9817 56.111 3.5 84.5 3.5C112.889 3.5 135.5 24.9817 135.5 51Z" fill="white" stroke="#FF0000" stroke-width="7"/>
<path d="M58.5743 125.014H55.8902V131H52.5211V114.648H58.5968C60.5284 114.648 62.0183 115.079 63.0665 115.94C64.1147 116.801 64.6387 118.018 64.6387 119.59C64.6387 120.705 64.3954 121.638 63.9088 122.386C63.4296 123.127 62.6996 123.719 61.7188 124.161L65.2564 130.843V131H61.6402L58.5743 125.014ZM55.8902 122.285H58.608C59.454 122.285 60.1091 122.072 60.5733 121.645C61.0375 121.211 61.2696 120.616 61.2696 119.859C61.2696 119.088 61.0487 118.482 60.607 118.04C60.1728 117.598 59.5027 117.377 58.5968 117.377H55.8902V122.285ZM83.8622 123.195C83.8622 124.805 83.5777 126.216 83.0087 127.429C82.4396 128.642 81.6236 129.577 80.5604 130.236C79.5047 130.895 78.2919 131.225 76.9217 131.225C75.5666 131.225 74.3574 130.899 73.2943 130.248C72.2311 129.596 71.4076 128.668 70.8236 127.462C70.2396 126.25 69.9439 124.857 69.9364 123.285V122.476C69.9364 120.866 70.2246 119.451 70.8011 118.231C71.3851 117.003 72.2049 116.063 73.2606 115.412C74.3238 114.753 75.5366 114.424 76.8993 114.424C78.2619 114.424 79.4711 114.753 80.5267 115.412C81.5899 116.063 82.4097 117.003 82.9862 118.231C83.5702 119.451 83.8622 120.863 83.8622 122.465V123.195ZM80.4481 122.454C80.4481 120.739 80.1411 119.436 79.5272 118.545C78.9133 117.654 78.0373 117.209 76.8993 117.209C75.7687 117.209 74.8965 117.651 74.2826 118.534C73.6686 119.41 73.3579 120.698 73.3504 122.397V123.195C73.3504 124.864 73.6574 126.16 74.2713 127.081C74.8853 128.001 75.7687 128.462 76.9217 128.462C78.0523 128.462 78.9208 128.02 79.5272 127.137C80.1337 126.246 80.4406 124.951 80.4481 123.251V122.454ZM102.367 125.553C102.24 127.313 101.588 128.698 100.413 129.708C99.2448 130.719 97.7024 131.225 95.7858 131.225C93.6894 131.225 92.0385 130.521 90.8331 129.113C89.6352 127.698 89.0363 125.759 89.0363 123.296V122.296C89.0363 120.724 89.3133 119.339 89.8673 118.141C90.4214 116.943 91.2112 116.026 92.237 115.39C93.2702 114.746 94.4681 114.424 95.8307 114.424C97.7174 114.424 99.2373 114.929 100.39 115.94C101.543 116.951 102.21 118.369 102.389 120.196H99.0202C98.9378 119.141 98.6421 118.377 98.1329 117.905C97.6313 117.426 96.8639 117.187 95.8307 117.187C94.7077 117.187 93.8654 117.591 93.3038 118.399C92.7498 119.201 92.4653 120.447 92.4503 122.139V123.375C92.4503 125.141 92.7161 126.433 93.2477 127.249C93.7868 128.065 94.6328 128.473 95.7858 128.473C96.8265 128.473 97.6014 128.237 98.1105 127.766C98.6271 127.286 98.9228 126.549 98.9977 125.553H102.367ZM112.92 124.441L111.168 126.328V131H107.799V114.648H111.168V122.061L112.651 120.028L116.817 114.648H120.961L115.155 121.915L121.13 131H117.121L112.92 124.441Z" fill="black"/>
<path d="M97.3166 27.8078C94.779 23.1734 89.8278 22.0283 86.123 24.5829C82.7841 20.2805 77.1573 20.3319 73.8508 24.5799C68.5084 20.8858 61.5359 25.271 61.3138 32.8932C56.0802 31.4111 51 36.1407 51 42.625V50.4116C51 54.8879 52.6177 59.1553 55.4384 62.1193L66.5071 73.7515C66.9887 74.2576 66.8594 74.5134 66.8594 78.25C66.8594 80.6662 68.4824 82.625 70.4844 82.625H99.0312C101.033 82.625 102.656 80.6662 102.656 78.25C102.656 75.0353 102.541 74.0465 103.107 72.4572L107.96 58.8323C108.65 56.8941 109 54.844 109 52.7391V37.0926C109 29.8685 102.847 24.9708 97.3166 27.8078V27.8078ZM103.562 52.7391C103.563 53.9434 103.36 55.1351 102.964 56.2408L98.1117 69.8656C97.5193 71.5296 97.2188 73.289 97.2188 75.095V76.0625H72.2969V74.6562C72.2969 72.4181 71.488 70.2843 70.0777 68.8023L59.009 57.1703C57.3748 55.4528 56.4375 52.9893 56.4375 50.4114V42.6249C56.4375 38.0847 62.3281 38.0397 62.3281 42.7174V48.3541C62.3281 48.6668 62.3837 48.9758 62.491 49.2604C62.5983 49.545 62.755 49.7985 62.9504 50.0039L63.7433 50.8372C64.0057 51.1128 64.3282 51.2916 64.6724 51.3521C65.0166 51.4126 65.3679 51.3523 65.6845 51.1784C66.0011 51.0044 66.2695 50.7243 66.4577 50.3713C66.646 50.0182 66.7461 49.6073 66.7461 49.1875V33.2499C66.7461 28.725 72.6367 28.6391 72.6367 33.3425V36.9999C72.6367 38.2079 73.4483 39.1874 74.4492 39.1874H75.2422C76.2431 39.1874 77.0547 38.2079 77.0547 36.9999V31.3748C77.0547 26.8448 82.9453 26.7708 82.9453 31.4674V36.9999C82.9453 38.2079 83.7567 39.1874 84.7578 39.1874H85.5508C86.5518 39.1874 87.3633 38.2079 87.3633 36.9999V33.2498C87.3633 28.734 93.2539 28.6314 93.2539 33.3424V36.9997C93.2539 38.2078 94.0653 39.1872 95.0664 39.1872H95.8594C96.8604 39.1872 97.6719 38.2078 97.6719 36.9997C97.6719 32.468 103.562 32.4042 103.562 37.0923V52.7391V52.7391Z" fill="black"/>
</svg>
