<svg width="172" height="138" viewBox="0 0 172 138" fill="none" xmlns="http://www.w3.org/2000/svg">
<path d="M30.2012 126.71C30.2012 126.074 29.9766 125.587 29.5274 125.25C29.0781 124.906 28.2696 124.546 27.1016 124.172C25.9336 123.79 25.009 123.416 24.3277 123.049C22.4709 122.046 21.5425 120.694 21.5425 118.995C21.5425 118.111 21.7896 117.325 22.2837 116.636C22.7853 115.94 23.5003 115.397 24.4287 115.008C25.3646 114.618 26.4128 114.424 27.5733 114.424C28.7412 114.424 29.7819 114.637 30.6953 115.064C31.6087 115.483 32.3163 116.078 32.8179 116.85C33.327 117.621 33.5816 118.497 33.5816 119.478H30.2124C30.2124 118.729 29.9766 118.149 29.5049 117.737C29.0332 117.318 28.3706 117.108 27.5171 117.108C26.6935 117.108 26.0534 117.284 25.5967 117.636C25.14 117.98 24.9116 118.437 24.9116 119.006C24.9116 119.537 25.1774 119.983 25.709 120.342C26.2481 120.702 27.0379 121.039 28.0786 121.353C29.9953 121.93 31.3916 122.645 32.2676 123.498C33.1436 124.352 33.5816 125.415 33.5816 126.688C33.5816 128.103 33.0462 129.214 31.9756 130.023C30.905 130.824 29.4637 131.225 27.6519 131.225C26.3941 131.225 25.2486 130.996 24.2154 130.54C23.1822 130.075 22.3923 129.443 21.8457 128.642C21.3067 127.84 21.0371 126.912 21.0371 125.856H24.4175C24.4175 127.661 25.4956 128.563 27.6519 128.563C28.453 128.563 29.0781 128.402 29.5274 128.08C29.9766 127.751 30.2012 127.294 30.2012 126.71ZM51.929 125.553C51.8017 127.313 51.1504 128.698 49.9749 129.708C48.8069 130.719 47.2646 131.225 45.348 131.225C43.2516 131.225 41.6007 130.521 40.3953 129.113C39.1974 127.698 38.5984 125.759 38.5984 123.296V122.296C38.5984 120.724 38.8755 119.339 39.4295 118.141C39.9835 116.943 40.7734 116.026 41.7991 115.39C42.8323 114.746 44.0302 114.424 45.3929 114.424C47.2796 114.424 48.7995 114.929 49.9524 115.94C51.1054 116.951 51.7718 118.369 51.9515 120.196H48.5823C48.5 119.141 48.2042 118.377 47.6951 117.905C47.1935 117.426 46.4261 117.187 45.3929 117.187C44.2698 117.187 43.4275 117.591 42.866 118.399C42.312 119.201 42.0275 120.447 42.0125 122.139V123.375C42.0125 125.141 42.2783 126.433 42.8099 127.249C43.3489 128.065 44.195 128.473 45.348 128.473C46.3886 128.473 47.1635 128.237 47.6727 127.766C48.1893 127.286 48.485 126.549 48.5599 125.553H51.929ZM60.9439 131H57.5748V114.648H60.9439V131ZM75.7762 126.71C75.7762 126.074 75.5516 125.587 75.1024 125.25C74.6532 124.906 73.8446 124.546 72.6766 124.172C71.5087 123.79 70.584 123.416 69.9027 123.049C68.0459 122.046 67.1175 120.694 67.1175 118.995C67.1175 118.111 67.3646 117.325 67.8587 116.636C68.3604 115.94 69.0754 115.397 70.0038 115.008C70.9396 114.618 71.9878 114.424 73.1483 114.424C74.3163 114.424 75.357 114.637 76.2704 115.064C77.1838 115.483 77.8913 116.078 78.3929 116.85C78.902 117.621 79.1566 118.497 79.1566 119.478H75.7875C75.7875 118.729 75.5516 118.149 75.0799 117.737C74.6083 117.318 73.9457 117.108 73.0921 117.108C72.2686 117.108 71.6284 117.284 71.1717 117.636C70.715 117.98 70.4867 118.437 70.4867 119.006C70.4867 119.537 70.7525 119.983 71.284 120.342C71.8231 120.702 72.613 121.039 73.6537 121.353C75.5703 121.93 76.9667 122.645 77.8426 123.498C78.7186 124.352 79.1566 125.415 79.1566 126.688C79.1566 128.103 78.6213 129.214 77.5506 130.023C76.48 130.824 75.0388 131.225 73.2269 131.225C71.9691 131.225 70.8236 130.996 69.7904 130.54C68.7572 130.075 67.9673 129.443 67.4208 128.642C66.8817 127.84 66.6122 126.912 66.6122 125.856H69.9925C69.9925 127.661 71.0707 128.563 73.2269 128.563C74.028 128.563 74.6532 128.402 75.1024 128.08C75.5516 127.751 75.7762 127.294 75.7762 126.71ZM93.1466 126.71C93.1466 126.074 92.922 125.587 92.4728 125.25C92.0236 124.906 91.215 124.546 90.047 124.172C88.879 123.79 87.9544 123.416 87.2731 123.049C85.4163 122.046 84.4879 120.694 84.4879 118.995C84.4879 118.111 84.735 117.325 85.2291 116.636C85.7308 115.94 86.4458 115.397 87.3742 115.008C88.31 114.618 89.3582 114.424 90.5187 114.424C91.6867 114.424 92.7274 114.637 93.6408 115.064C94.5542 115.483 95.2617 116.078 95.7633 116.85C96.2724 117.621 96.527 118.497 96.527 119.478H93.1579C93.1579 118.729 92.922 118.149 92.4503 117.737C91.9787 117.318 91.3161 117.108 90.4625 117.108C89.639 117.108 88.9988 117.284 88.5421 117.636C88.0854 117.98 87.8571 118.437 87.8571 119.006C87.8571 119.537 88.1229 119.983 88.6544 120.342C89.1935 120.702 89.9834 121.039 91.0241 121.353C92.9407 121.93 94.3371 122.645 95.213 123.498C96.089 124.352 96.527 125.415 96.527 126.688C96.527 128.103 95.9917 129.214 94.921 130.023C93.8504 130.824 92.4092 131.225 90.5973 131.225C89.3395 131.225 88.194 130.996 87.1608 130.54C86.1276 130.075 85.3377 129.443 84.7912 128.642C84.2521 127.84 83.9826 126.912 83.9826 125.856H87.3629C87.3629 127.661 88.4411 128.563 90.5973 128.563C91.3984 128.563 92.0236 128.402 92.4728 128.08C92.922 127.751 93.1466 127.294 93.1466 126.71ZM115.47 123.195C115.47 124.805 115.185 126.216 114.616 127.429C114.047 128.642 113.231 129.577 112.168 130.236C111.112 130.895 109.899 131.225 108.529 131.225C107.174 131.225 105.965 130.899 104.902 130.248C103.839 129.596 103.015 128.668 102.431 127.462C101.847 126.25 101.551 124.857 101.544 123.285V122.476C101.544 120.866 101.832 119.451 102.409 118.231C102.993 117.003 103.812 116.063 104.868 115.412C105.931 114.753 107.144 114.424 108.507 114.424C109.869 114.424 111.079 114.753 112.134 115.412C113.197 116.063 114.017 117.003 114.594 118.231C115.178 119.451 115.47 120.863 115.47 122.465V123.195ZM112.056 122.454C112.056 120.739 111.749 119.436 111.135 118.545C110.521 117.654 109.645 117.209 108.507 117.209C107.376 117.209 106.504 117.651 105.89 118.534C105.276 119.41 104.965 120.698 104.958 122.397V123.195C104.958 124.864 105.265 126.16 105.879 127.081C106.493 128.001 107.376 128.462 108.529 128.462C109.66 128.462 110.528 128.02 111.135 127.137C111.741 126.246 112.048 124.951 112.056 123.251V122.454ZM127.191 125.014H124.507V131H121.138V114.648H127.214C129.145 114.648 130.635 115.079 131.683 115.94C132.731 116.801 133.256 118.018 133.256 119.59C133.256 120.705 133.012 121.638 132.526 122.386C132.046 123.127 131.316 123.719 130.336 124.161L133.873 130.843V131H130.257L127.191 125.014ZM124.507 122.285H127.225C128.071 122.285 128.726 122.072 129.19 121.645C129.654 121.211 129.886 120.616 129.886 119.859C129.886 119.088 129.666 118.482 129.224 118.04C128.79 117.598 128.12 117.377 127.214 117.377H124.507V122.285ZM147.526 126.71C147.526 126.074 147.302 125.587 146.853 125.25C146.403 124.906 145.595 124.546 144.427 124.172C143.259 123.79 142.334 123.416 141.653 123.049C139.796 122.046 138.868 120.694 138.868 118.995C138.868 118.111 139.115 117.325 139.609 116.636C140.11 115.94 140.826 115.397 141.754 115.008C142.69 114.618 143.738 114.424 144.898 114.424C146.066 114.424 147.107 114.637 148.02 115.064C148.934 115.483 149.641 116.078 150.143 116.85C150.652 117.621 150.907 118.497 150.907 119.478H147.538C147.538 118.729 147.302 118.149 146.83 117.737C146.358 117.318 145.696 117.108 144.842 117.108C144.019 117.108 143.379 117.284 142.922 117.636C142.465 117.98 142.237 118.437 142.237 119.006C142.237 119.537 142.503 119.983 143.034 120.342C143.573 120.702 144.363 121.039 145.404 121.353C147.32 121.93 148.717 122.645 149.593 123.498C150.469 124.352 150.907 125.415 150.907 126.688C150.907 128.103 150.371 129.214 149.301 130.023C148.23 130.824 146.789 131.225 144.977 131.225C143.719 131.225 142.574 130.996 141.541 130.54C140.507 130.075 139.717 129.443 139.171 128.642C138.632 127.84 138.362 126.912 138.362 125.856H141.743C141.743 127.661 142.821 128.563 144.977 128.563C145.778 128.563 146.403 128.402 146.853 128.08C147.302 127.751 147.526 127.294 147.526 126.71Z" fill="black"/>
<path d="M135.5 51C135.5 77.0183 112.889 98.5 84.5 98.5C56.111 98.5 33.5 77.0183 33.5 51C33.5 24.9817 56.111 3.5 84.5 3.5C112.889 3.5 135.5 24.9817 135.5 51Z" fill="white" stroke="#35A90D" stroke-width="7"/>
<path d="M80 86L87.9297 85.9981C88.509 85.9981 89.0887 85.9122 89.6519 85.7434L103.132 81.7028C106.571 80.6721 109 76.7217 109 72.1926V41.8883C109 38.3754 107.524 35.1188 105.148 33.3893L94.0464 25.3083C90.1485 22.4708 86.4268 24.4503 83.5999 28.952L67.1822 20.7378C62.8903 18.59 58.0504 21.2869 56.3478 26.8076C54.6375 32.3531 56.7596 38.6478 61.099 40.8196L70.0312 43.5715L59.3828 42.2248C54.7605 42.2248 51 47.0586 51 52.9999C51 58.9413 54.7605 63.7751 59.3828 63.7751H69.3102C68.8939 67.6416 70.2949 71.3322 72.7473 73.3519C71.2385 79.6264 74.9073 86 80 86ZM80 78.9267C77.1498 78.9267 77.1544 73.5396 80 73.5396C81.0011 73.5396 81.8125 72.4843 81.8125 71.1824V70.1724C81.8125 68.8705 81.0011 67.8152 80 67.8152H76.8281C73.9781 67.8152 73.9823 62.4282 76.8281 62.4282H80C81.0011 62.4282 81.8125 61.3729 81.8125 60.071V59.061C81.8125 57.7591 81.0011 56.7038 80 56.7038H59.3828C55.4825 56.7038 55.4888 49.2964 59.3828 49.2964H80C81.0011 49.2964 81.8125 48.2411 81.8125 46.9392V45.2256C81.8125 44.7492 81.7015 44.284 81.4942 43.8912C81.2868 43.4985 80.9928 43.1967 80.6509 43.0256L63.0519 34.218C59.4776 32.4296 61.5303 25.4844 65.2294 27.3356L84.0963 36.7776C84.4525 36.9559 84.843 36.9833 85.212 36.856C85.5809 36.7287 85.9096 36.4532 86.1511 36.0687L88.6165 32.143C89.2758 31.0931 90.4684 30.8077 91.3905 31.4789L102.492 39.56C103.152 40.0408 103.562 40.9328 103.562 41.8885V72.1926C103.562 73.4435 102.883 74.5209 101.911 74.8123L88.4307 78.8529C88.2664 78.902 88.0983 78.9268 87.9297 78.9268H80V78.9267Z" fill="black"/>
</svg>
