<svg width="318" height="102" viewBox="0 0 318 102" fill="none" xmlns="http://www.w3.org/2000/svg">
<mask id="path-1-inside-1" fill="white">
<path d="M70 20C70 18.3431 71.3431 17 73 17H298C309.046 17 318 25.9543 318 37V66C318 77.0457 309.046 86 298 86H73C71.3431 86 70 84.6569 70 83V20Z"/>
</mask>
<path d="M70 20C70 18.3431 71.3431 17 73 17H298C309.046 17 318 25.9543 318 37V66C318 77.0457 309.046 86 298 86H73C71.3431 86 70 84.6569 70 83V20Z" fill="white" stroke="#35A90D" stroke-width="14" mask="url(#path-1-inside-1)"/>
<path d="M105.5 51C105.5 77.0183 82.889 98.5 54.5 98.5C26.111 98.5 3.5 77.0183 3.5 51C3.5 24.9817 26.111 3.5 54.5 3.5C82.889 3.5 105.5 24.9817 105.5 51Z" fill="white" stroke="#35A90D" stroke-width="7"/>
<path d="M154.201 56.71C154.201 56.0736 153.977 55.5869 153.527 55.25C153.078 54.9056 152.27 54.5462 151.102 54.1719C149.934 53.79 149.009 53.4157 148.328 53.0488C146.471 52.0456 145.543 50.6942 145.543 48.9946C145.543 48.1112 145.79 47.325 146.284 46.6362C146.785 45.9399 147.5 45.3971 148.429 45.0078C149.365 44.6185 150.413 44.4238 151.573 44.4238C152.741 44.4238 153.782 44.6372 154.695 45.064C155.609 45.4832 156.316 46.0785 156.818 46.8496C157.327 47.6208 157.582 48.4967 157.582 49.4775H154.212C154.212 48.7288 153.977 48.1486 153.505 47.7368C153.033 47.3175 152.371 47.1079 151.517 47.1079C150.694 47.1079 150.053 47.2839 149.597 47.6357C149.14 47.9801 148.912 48.4368 148.912 49.0059C148.912 49.5374 149.177 49.9829 149.709 50.3423C150.248 50.7017 151.038 51.0386 152.079 51.353C153.995 51.9295 155.392 52.6445 156.268 53.498C157.144 54.3516 157.582 55.4147 157.582 56.6875C157.582 58.1025 157.046 59.2144 155.976 60.0229C154.905 60.8241 153.464 61.2246 151.652 61.2246C150.394 61.2246 149.249 60.9963 148.215 60.5396C147.182 60.0754 146.392 59.4427 145.846 58.6416C145.307 57.8405 145.037 56.9121 145.037 55.8564H148.418C148.418 57.6608 149.496 58.563 151.652 58.563C152.453 58.563 153.078 58.402 153.527 58.0801C153.977 57.7507 154.201 57.2939 154.201 56.71ZM175.929 55.5532C175.802 57.3127 175.15 58.6978 173.975 59.7085C172.807 60.7192 171.265 61.2246 169.348 61.2246C167.252 61.2246 165.601 60.5208 164.395 59.1133C163.197 57.6982 162.598 55.7591 162.598 53.2959V52.2964C162.598 50.7241 162.875 49.339 163.429 48.1411C163.984 46.9432 164.773 46.026 165.799 45.3896C166.832 44.7458 168.03 44.4238 169.393 44.4238C171.28 44.4238 172.799 44.9292 173.952 45.9399C175.105 46.9507 175.772 48.3695 175.951 50.1963H172.582C172.5 49.1406 172.204 48.377 171.695 47.9053C171.193 47.4261 170.426 47.1865 169.393 47.1865C168.27 47.1865 167.428 47.5908 166.866 48.3994C166.312 49.2005 166.027 50.4471 166.013 52.1392V53.3745C166.013 55.1414 166.278 56.4329 166.81 57.249C167.349 58.0651 168.195 58.4731 169.348 58.4731C170.389 58.4731 171.164 58.2373 171.673 57.7656C172.189 57.2865 172.485 56.549 172.56 55.5532H175.929ZM184.944 61H181.575V44.6484H184.944V61ZM199.776 56.71C199.776 56.0736 199.552 55.5869 199.102 55.25C198.653 54.9056 197.845 54.5462 196.677 54.1719C195.509 53.79 194.584 53.4157 193.903 53.0488C192.046 52.0456 191.118 50.6942 191.118 48.9946C191.118 48.1112 191.365 47.325 191.859 46.6362C192.36 45.9399 193.075 45.3971 194.004 45.0078C194.94 44.6185 195.988 44.4238 197.148 44.4238C198.316 44.4238 199.357 44.6372 200.27 45.064C201.184 45.4832 201.891 46.0785 202.393 46.8496C202.902 47.6208 203.157 48.4967 203.157 49.4775H199.787C199.787 48.7288 199.552 48.1486 199.08 47.7368C198.608 47.3175 197.946 47.1079 197.092 47.1079C196.269 47.1079 195.628 47.2839 195.172 47.6357C194.715 47.9801 194.487 48.4368 194.487 49.0059C194.487 49.5374 194.752 49.9829 195.284 50.3423C195.823 50.7017 196.613 51.0386 197.654 51.353C199.57 51.9295 200.967 52.6445 201.843 53.498C202.719 54.3516 203.157 55.4147 203.157 56.6875C203.157 58.1025 202.621 59.2144 201.551 60.0229C200.48 60.8241 199.039 61.2246 197.227 61.2246C195.969 61.2246 194.824 60.9963 193.79 60.5396C192.757 60.0754 191.967 59.4427 191.421 58.6416C190.882 57.8405 190.612 56.9121 190.612 55.8564H193.993C193.993 57.6608 195.071 58.563 197.227 58.563C198.028 58.563 198.653 58.402 199.102 58.0801C199.552 57.7507 199.776 57.2939 199.776 56.71ZM217.147 56.71C217.147 56.0736 216.922 55.5869 216.473 55.25C216.024 54.9056 215.215 54.5462 214.047 54.1719C212.879 53.79 211.954 53.4157 211.273 53.0488C209.416 52.0456 208.488 50.6942 208.488 48.9946C208.488 48.1112 208.735 47.325 209.229 46.6362C209.731 45.9399 210.446 45.3971 211.374 45.0078C212.31 44.6185 213.358 44.4238 214.519 44.4238C215.687 44.4238 216.727 44.6372 217.641 45.064C218.554 45.4832 219.262 46.0785 219.763 46.8496C220.272 47.6208 220.527 48.4967 220.527 49.4775H217.158C217.158 48.7288 216.922 48.1486 216.45 47.7368C215.979 47.3175 215.316 47.1079 214.463 47.1079C213.639 47.1079 212.999 47.2839 212.542 47.6357C212.085 47.9801 211.857 48.4368 211.857 49.0059C211.857 49.5374 212.123 49.9829 212.654 50.3423C213.193 50.7017 213.983 51.0386 215.024 51.353C216.941 51.9295 218.337 52.6445 219.213 53.498C220.089 54.3516 220.527 55.4147 220.527 56.6875C220.527 58.1025 219.992 59.2144 218.921 60.0229C217.85 60.8241 216.409 61.2246 214.597 61.2246C213.339 61.2246 212.194 60.9963 211.161 60.5396C210.128 60.0754 209.338 59.4427 208.791 58.6416C208.252 57.8405 207.983 56.9121 207.983 55.8564H211.363C211.363 57.6608 212.441 58.563 214.597 58.563C215.398 58.563 216.024 58.402 216.473 58.0801C216.922 57.7507 217.147 57.2939 217.147 56.71ZM239.47 53.1948C239.47 54.8045 239.185 56.2158 238.616 57.4287C238.047 58.6416 237.231 59.5775 236.168 60.2363C235.112 60.8952 233.899 61.2246 232.529 61.2246C231.174 61.2246 229.965 60.8989 228.902 60.2476C227.839 59.5962 227.015 58.6678 226.431 57.4624C225.847 56.2495 225.551 54.8569 225.544 53.2847V52.4761C225.544 50.8664 225.832 49.4513 226.409 48.231C226.993 47.0031 227.812 46.0635 228.868 45.4121C229.931 44.7533 231.144 44.4238 232.507 44.4238C233.869 44.4238 235.079 44.7533 236.134 45.4121C237.197 46.0635 238.017 47.0031 238.594 48.231C239.178 49.4513 239.47 50.8626 239.47 52.4648V53.1948ZM236.056 52.4536C236.056 50.7391 235.749 49.4364 235.135 48.5454C234.521 47.6545 233.645 47.209 232.507 47.209C231.376 47.209 230.504 47.6507 229.89 48.5342C229.276 49.4102 228.965 50.6979 228.958 52.3975V53.1948C228.958 54.8644 229.265 56.1597 229.879 57.0806C230.493 58.0015 231.376 58.4619 232.529 58.4619C233.66 58.4619 234.528 58.0202 235.135 57.1367C235.741 56.2458 236.048 54.9505 236.056 53.251V52.4536ZM251.191 55.0142H248.507V61H245.138V44.6484H251.214C253.145 44.6484 254.635 45.0789 255.683 45.9399C256.731 46.8009 257.256 48.0176 257.256 49.5898C257.256 50.7054 257.012 51.6375 256.526 52.3862C256.046 53.1274 255.316 53.7189 254.336 54.1606L257.873 60.8428V61H254.257L251.191 55.0142ZM248.507 52.2852H251.225C252.071 52.2852 252.726 52.0718 253.19 51.645C253.654 51.2108 253.886 50.6156 253.886 49.8594C253.886 49.0882 253.666 48.4818 253.224 48.04C252.79 47.5983 252.12 47.3774 251.214 47.3774H248.507V52.2852ZM271.526 56.71C271.526 56.0736 271.302 55.5869 270.853 55.25C270.403 54.9056 269.595 54.5462 268.427 54.1719C267.259 53.79 266.334 53.4157 265.653 53.0488C263.796 52.0456 262.868 50.6942 262.868 48.9946C262.868 48.1112 263.115 47.325 263.609 46.6362C264.11 45.9399 264.826 45.3971 265.754 45.0078C266.69 44.6185 267.738 44.4238 268.898 44.4238C270.066 44.4238 271.107 44.6372 272.02 45.064C272.934 45.4832 273.641 46.0785 274.143 46.8496C274.652 47.6208 274.907 48.4967 274.907 49.4775H271.538C271.538 48.7288 271.302 48.1486 270.83 47.7368C270.358 47.3175 269.696 47.1079 268.842 47.1079C268.019 47.1079 267.379 47.2839 266.922 47.6357C266.465 47.9801 266.237 48.4368 266.237 49.0059C266.237 49.5374 266.503 49.9829 267.034 50.3423C267.573 50.7017 268.363 51.0386 269.404 51.353C271.32 51.9295 272.717 52.6445 273.593 53.498C274.469 54.3516 274.907 55.4147 274.907 56.6875C274.907 58.1025 274.371 59.2144 273.301 60.0229C272.23 60.8241 270.789 61.2246 268.977 61.2246C267.719 61.2246 266.574 60.9963 265.541 60.5396C264.507 60.0754 263.717 59.4427 263.171 58.6416C262.632 57.8405 262.362 56.9121 262.362 55.8564H265.743C265.743 57.6608 266.821 58.563 268.977 58.563C269.778 58.563 270.403 58.402 270.853 58.0801C271.302 57.7507 271.526 57.2939 271.526 56.71Z" fill="black"/>
<path d="M50 86L57.9297 85.9981C58.509 85.9981 59.0887 85.9122 59.6519 85.7434L73.1323 81.7028C76.5713 80.6721 79 76.7217 79 72.1926V41.8883C79 38.3754 77.5239 35.1188 75.1479 33.3893L64.0464 25.3083C60.1485 22.4708 56.4268 24.4503 53.5999 28.952L37.1822 20.7378C32.8903 18.59 28.0504 21.2869 26.3478 26.8076C24.6375 32.3531 26.7596 38.6478 31.099 40.8196L40.0312 43.5715L29.3828 42.2248C24.7605 42.2248 21 47.0586 21 52.9999C21 58.9413 24.7605 63.7751 29.3828 63.7751H39.3102C38.8939 67.6416 40.2949 71.3322 42.7473 73.3519C41.2385 79.6264 44.9073 86 50 86ZM50 78.9267C47.1498 78.9267 47.1544 73.5396 50 73.5396C51.0011 73.5396 51.8125 72.4843 51.8125 71.1824V70.1724C51.8125 68.8705 51.0011 67.8152 50 67.8152H46.8281C43.9781 67.8152 43.9823 62.4282 46.8281 62.4282H50C51.0011 62.4282 51.8125 61.3729 51.8125 60.071V59.061C51.8125 57.7591 51.0011 56.7038 50 56.7038H29.3828C25.4825 56.7038 25.4888 49.2964 29.3828 49.2964H50C51.0011 49.2964 51.8125 48.2411 51.8125 46.9392V45.2256C51.8125 44.7492 51.7015 44.284 51.4942 43.8912C51.2868 43.4985 50.9928 43.1967 50.6509 43.0256L33.0519 34.218C29.4776 32.4296 31.5303 25.4844 35.2294 27.3356L54.0962 36.7776C54.4525 36.9559 54.843 36.9833 55.212 36.856C55.5809 36.7287 55.9096 36.4532 56.1511 36.0687L58.6165 32.143C59.2758 31.0931 60.4684 30.8077 61.3905 31.4789L72.4921 39.56C73.1523 40.0408 73.5625 40.9328 73.5625 41.8885V72.1926C73.5625 73.4435 72.8835 74.5209 71.9113 74.8123L58.4307 78.8529C58.2664 78.902 58.0983 78.9268 57.9297 78.9268H50V78.9267Z" fill="black"/>
</svg>
